# Blender v2.78 (sub 0) OBJ File: 'mk45.blend'
# www.blender.org
mtllib mk45.mtl
o body.000_立方体.010
v 0.992105 0.720357 1.204988
v 0.000000 0.720357 -1.190165
v -0.992105 0.720357 1.204988
v 0.000000 -0.307086 -1.190165
v -0.992105 -0.307086 -0.779222
v -1.403048 0.720357 0.212885
v 1.403048 0.720357 0.212885
v -1.403048 -0.307086 0.212885
v -0.000000 0.720357 1.615932
v -0.000000 -0.307086 1.615932
v 1.403048 -0.307086 0.212885
v 0.992105 0.720357 -0.779222
v -0.992105 -0.307086 1.204988
v 0.000000 -0.307086 0.212885
v -0.992105 0.720357 -0.779222
v 0.992105 -0.307086 -0.779222
v 0.000000 0.720357 0.212885
v 0.992105 -0.307086 1.204988
vt 0.9771 0.0537
vt 0.9685 0.0537
vt 0.9728 0.0434
vt 0.9560 0.0683
vt 0.9631 0.0597
vt 0.9631 0.0683
vt 0.9419 0.0597
vt 0.9489 0.0537
vt 0.9489 0.0597
vt 0.9419 0.0683
vt 0.9489 0.0683
vt 0.9419 0.0743
vt 0.9489 0.0743
vt 0.9489 0.0683
vt 0.9560 0.0622
vt 0.9560 0.0683
vt 0.9560 0.0597
vt 0.9631 0.0537
vt 0.9631 0.0622
vt 0.9701 0.0537
vt 0.9701 0.0622
vt 0.9565 0.0537
vt 0.9479 0.0537
vt 0.9522 0.0434
vt 0.9831 0.0477
vt 0.9419 0.0391
vt 0.9479 0.0331
vt 0.9419 0.0477
vt 0.9625 0.0391
vt 0.9625 0.0477
vt 0.9565 0.0331
vt 0.9489 0.0622
vt 0.9560 0.0537
vt 0.9625 0.0477
vt 0.9831 0.0391
vt 0.9625 0.0391
vt 0.9685 0.0331
vt 0.9771 0.0331
vt 0.9419 0.0537
vt 0.9560 0.0537
vt 0.9631 0.0537
vt 0.9489 0.0537
vn 0.0000 -1.0000 0.0000
vn -0.9239 0.0000 0.3827
vn -0.3827 0.0000 0.9239
vn 0.3827 0.0000 0.9239
vn 0.9239 0.0000 0.3827
vn 0.3827 0.0000 -0.9239
vn -0.9239 0.0000 -0.3827
vn -0.3827 0.0000 -0.9239
vn 0.0000 1.0000 0.0000
vn 0.9239 0.0000 -0.3827
usemtl マテリアル
s off
f 5/1/1 4/2/1 14/3/1
f 3/4/2 8/5/2 13/6/2
f 9/7/3 13/8/3 10/9/3
f 1/10/4 10/9/4 18/11/4
f 7/12/5 18/11/5 11/13/5
f 2/14/6 16/15/6 4/16/6
f 6/17/7 5/18/7 8/5/7
f 15/19/8 4/20/8 5/21/8
f 15/22/9 6/23/9 17/24/9
f 8/25/1 5/1/1 14/3/1
f 9/26/9 1/27/9 17/24/9
f 6/23/9 3/28/9 17/24/9
f 12/29/9 2/30/9 17/24/9
f 1/27/9 7/31/9 17/24/9
f 12/32/10 11/33/10 16/15/10
f 3/28/9 9/26/9 17/24/9
f 7/31/9 12/29/9 17/24/9
f 4/2/1 16/34/1 14/3/1
f 13/35/1 8/25/1 14/3/1
f 2/30/9 15/22/9 17/24/9
f 11/36/1 18/37/1 14/3/1
f 10/38/1 13/35/1 14/3/1
f 16/34/1 11/36/1 14/3/1
f 18/37/1 10/38/1 14/3/1
f 3/4/2 6/17/2 8/5/2
f 9/7/3 3/39/3 13/8/3
f 1/10/4 9/7/4 10/9/4
f 7/12/5 1/10/5 18/11/5
f 2/14/6 12/32/6 16/15/6
f 6/17/7 15/40/7 5/18/7
f 15/19/8 2/41/8 4/20/8
f 12/32/10 7/42/10 11/33/10
