# Blender v2.78 (sub 0) OBJ File: 'mk45.blend'
# www.blender.org
mtllib mk45_weapon0_0.mtl
o body.001_立方体.011
v 0.255159 2.869247 3.873092
v -0.118368 2.987618 4.821606
v 0.000003 2.614092 0.275170
v 0.000003 2.701845 4.821606
v 0.000003 3.036650 8.755994
v -0.727851 3.383914 0.976502
v 0.000003 3.036650 4.821606
v -0.727851 2.869246 -0.266014
v -0.727851 2.354578 -0.052830
v 0.000003 3.124403 3.873092
v 0.727851 2.141396 0.461836
v -0.727851 3.597096 0.461836
v -0.180419 3.049670 3.873092
v 0.000003 2.614092 3.873092
v 0.000003 2.701845 8.755994
v -0.118368 2.750876 8.755994
v -0.118368 2.987618 8.755994
v 0.727851 2.354578 -0.052830
v 0.727851 2.869246 1.189689
v 0.727851 3.383914 0.976502
v 0.255159 2.869247 0.275170
v -0.167400 2.869247 4.821606
v -0.167400 2.869247 8.755994
v -0.180419 2.688826 3.873092
v 0.000003 2.869247 8.755994
v 0.727851 3.383914 -0.052830
v 0.180426 3.049670 3.873092
v 0.727851 2.869246 -0.266014
v 0.180426 3.049670 0.275170
v 0.000003 3.124403 0.275170
v -0.727851 2.141396 0.461836
v 0.167406 2.869247 4.821606
v -0.255152 2.869247 3.873092
v -0.727851 2.354578 0.976502
v 0.118375 2.987618 4.821606
v 0.180426 2.688826 0.275170
v -0.727851 2.869246 1.189689
v -0.118368 2.750876 4.821606
v 0.118375 2.750876 8.755994
v -0.255152 2.869247 0.275170
v 0.727851 2.354578 0.976502
v 0.118375 2.987618 8.755994
v -0.727851 3.383914 -0.052830
v 0.180426 2.688826 3.873092
v -0.180419 2.688826 0.275170
v -0.180419 3.049670 0.275170
v 0.118375 2.750876 4.821606
v 0.167406 2.869247 8.755994
v 0.727851 3.597096 0.461836
vt -0.1395 0.5128
vt -0.1388 0.4927
vt -0.1388 0.5128
vt -0.1367 0.5176
vt -0.1359 0.5127
vt -0.1356 0.5176
vt -0.1388 0.5177
vt -0.1377 0.5362
vt -0.1388 0.5362
vt -0.1804 0.5128
vt -0.1798 0.5099
vt -0.1794 0.5131
vt -0.1816 0.5131
vt -0.1804 0.5260
vt -0.1816 0.5263
vt -0.1417 0.5129
vt -0.1410 0.4927
vt -0.1410 0.5129
vt -0.1381 0.5128
vt -0.1377 0.5177
vt -0.1794 0.5263
vt -0.1381 0.4927
vt -0.1377 0.5176
vt -0.1366 0.5127
vt -0.1421 0.5177
vt -0.1410 0.5362
vt -0.1421 0.5362
vt -0.1403 0.4927
vt -0.1403 0.5129
vt -0.1805 0.5097
vt -0.1410 0.5177
vt -0.1399 0.5362
vt -0.1399 0.5177
vt -0.1367 0.5360
vt -0.1377 0.5359
vt -0.1399 0.5177
vt -0.1359 0.4927
vt -0.1356 0.5359
vt -0.1399 0.5362
vt 0.6198 0.1201
vt 0.6017 0.1020
vt 0.6325 0.0892
vt 0.6634 0.1020
vt 0.6453 0.1201
vt 0.6634 0.0764
vt -0.1524 0.4849
vt -0.1555 0.4924
vt -0.1555 0.4849
vt -0.1586 0.4849
vt -0.1600 0.5175
vt -0.1630 0.5100
vt -0.1600 0.5100
vt -0.1630 0.5175
vt -0.1662 0.5100
vt -0.1724 0.5100
vt -0.1693 0.5175
vt -0.1724 0.5175
vt -0.1693 0.5100
vt -0.1662 0.5175
vt -0.1462 0.4908
vt -0.1494 0.4849
vt -0.1462 0.4856
vt -0.1373 0.5127
vt -0.1366 0.4927
vt -0.1494 0.4901
vt -0.1524 0.4857
vt 0.6017 0.0764
vt 0.6198 0.0583
vt 0.6453 0.0583
vt -0.1812 0.5098
vt -0.1805 0.4953
vt -0.1798 0.4955
vt -0.1395 0.4927
vt -0.1417 0.4927
vt -0.1524 0.4924
vt -0.1586 0.4924
vt -0.1662 0.5175
vt -0.1662 0.5100
vt -0.1373 0.4927
vt -0.1524 0.4910
vt -0.1812 0.4954
vn -0.3827 0.9239 0.0000
vn -0.9205 0.3813 0.0852
vn 0.3827 0.9239 0.0000
vn 0.9205 -0.3813 0.0852
vn 0.9239 0.3827 0.0000
vn 0.3827 -0.9239 0.0000
vn 0.3813 0.9205 0.0852
vn 0.9239 -0.3827 0.0000
vn -0.9205 -0.3813 0.0852
vn -0.3827 -0.9239 -0.0000
vn 0.9205 0.3813 0.0852
vn -0.3813 -0.9205 0.0852
vn -0.9239 -0.3827 0.0000
vn -0.3813 0.9205 0.0852
vn -0.9239 0.3827 0.0000
vn 0.3813 -0.9205 0.0852
vn 0.0000 0.0000 1.0000
vn 0.0000 -0.9239 -0.3827
vn 0.0000 -0.9239 0.3827
vn 0.0000 -0.3827 0.9239
vn 0.0000 0.3827 0.9239
vn 0.0000 0.9239 0.3827
vn 0.0000 0.9239 -0.3827
vn 0.0000 0.3827 -0.9239
vn 0.0000 -0.3827 -0.9239
usemtl マテリアル
s off
f 2/1/1 5/2/1 7/3/1
f 33/4/2 2/5/2 13/6/2
f 10/7/3 29/8/3 30/9/3
f 1/10/4 47/11/4 44/12/4
f 27/13/5 21/14/5 29/15/5
f 47/16/6 15/17/6 4/18/6
f 10/7/7 35/19/7 27/20/7
f 1/10/8 36/21/8 21/14/8
f 7/3/3 42/22/3 35/19/3
f 24/23/9 22/24/9 33/4/9
f 44/25/6 3/26/6 36/27/6
f 4/18/10 16/28/10 38/29/10
f 27/13/11 32/30/11 1/10/11
f 14/31/10 45/32/10 3/26/10
f 24/33/12 4/18/12 38/29/12
f 24/23/13 40/34/13 45/35/13
f 13/36/14 7/3/14 10/7/14
f 22/24/15 17/37/15 2/5/15
f 33/4/15 46/38/15 40/34/15
f 44/25/16 4/18/16 14/31/16
f 13/36/1 30/9/1 46/39/1
f 23/40/17 16/41/17 25/42/17
f 5/43/17 17/44/17 25/42/17
f 17/44/17 23/40/17 25/42/17
f 42/45/17 5/43/17 25/42/17
f 9/46/18 11/47/18 31/48/18
f 11/47/19 34/49/19 31/48/19
f 41/50/20 37/51/20 34/52/20
f 19/53/21 6/54/21 37/51/21
f 20/55/22 12/56/22 6/57/22
f 49/58/23 43/59/23 12/56/23
f 26/60/24 8/61/24 43/62/24
f 38/63/13 23/64/13 22/24/13
f 28/65/25 9/66/25 8/61/25
f 16/41/17 15/67/17 25/42/17
f 15/67/17 39/68/17 25/42/17
f 39/68/17 48/69/17 25/42/17
f 48/69/17 42/45/17 25/42/17
f 35/70/5 48/71/5 32/30/5
f 32/30/8 39/72/8 47/11/8
f 2/1/1 17/73/1 5/2/1
f 33/4/2 22/24/2 2/5/2
f 10/7/3 27/20/3 29/8/3
f 1/10/4 32/30/4 47/11/4
f 27/13/5 1/10/5 21/14/5
f 47/16/6 39/74/6 15/17/6
f 10/7/7 7/3/7 35/19/7
f 1/10/8 44/12/8 36/21/8
f 7/3/3 5/2/3 42/22/3
f 24/23/9 38/63/9 22/24/9
f 44/25/6 14/31/6 3/26/6
f 4/18/10 15/17/10 16/28/10
f 27/13/11 35/70/11 32/30/11
f 14/31/10 24/33/10 45/32/10
f 24/33/12 14/31/12 4/18/12
f 24/23/13 33/4/13 40/34/13
f 13/36/14 2/1/14 7/3/14
f 22/24/15 23/64/15 17/37/15
f 33/4/15 13/6/15 46/38/15
f 44/25/16 47/16/16 4/18/16
f 13/36/1 10/7/1 30/9/1
f 9/46/18 18/75/18 11/47/18
f 11/47/19 41/76/19 34/49/19
f 41/50/20 19/53/20 37/51/20
f 19/53/21 20/77/21 6/54/21
f 20/55/22 49/58/22 12/56/22
f 49/58/23 26/78/23 43/59/23
f 26/60/24 28/65/24 8/61/24
f 38/63/13 16/79/13 23/64/13
f 28/65/25 18/80/25 9/66/25
f 35/70/5 42/81/5 48/71/5
f 32/30/8 48/71/8 39/72/8
