# Blender v2.78 (sub 0) OBJ File: 'mk45.blend'
# www.blender.org
mtllib mk45_weapon0.mtl
o body.002_立方体.003
v 1.481908 0.626547 -1.262121
v 0.562649 0.626547 -1.262121
v -1.481907 0.626547 -1.262121
v 0.454974 2.450761 -2.149557
v 0.454974 0.627305 0.142683
v -0.454974 0.627305 2.116634
v -0.454974 0.627305 -0.633300
v 1.273478 3.616936 -1.262121
v -0.454974 3.849809 -0.633300
v -1.376663 3.586774 0.918664
v -0.000000 3.849809 -2.149557
v 0.454974 3.849809 -0.633300
v 1.585092 0.627305 0.142683
v -0.454974 1.983217 0.142683
v 1.376663 3.586774 0.142683
v -0.000000 0.627305 0.142683
v -1.585092 0.627305 -0.633300
v -0.000000 3.849809 -0.633300
v 1.009443 0.627305 2.116634
v 0.454974 0.627305 -0.633300
v 0.454974 1.983217 0.142683
v -0.454974 0.627305 0.918664
v -0.454974 2.450761 -2.149557
v -1.376663 3.586774 0.142683
v -0.454974 3.841174 0.142683
v -0.801013 1.678694 1.989312
v -0.454974 3.849809 -2.149557
v -0.562649 0.626547 -1.262121
v 0.454974 0.627305 2.116634
v -0.000000 3.841174 0.142683
v -1.376663 3.586774 -0.633300
v -0.000000 1.678694 1.989312
v -1.585092 0.627305 0.918664
v -0.454974 1.678694 1.989312
v -1.273478 3.616936 -1.262121
v -0.000000 0.627305 -0.633300
v -1.585092 0.627305 0.142683
v -0.000000 0.626547 -1.262121
v 1.585092 0.627305 0.918664
v 0.454974 3.849809 -2.149557
v 0.454974 0.627305 0.918664
v 1.376663 3.586774 -0.633300
v 1.376663 3.586774 0.918664
v -0.000000 2.450761 -2.149557
v -0.000000 0.627305 0.918664
v -0.454974 3.586774 0.918664
v 0.454974 3.586774 0.918664
v -1.009442 0.627305 2.116634
v -0.454974 0.627305 0.142683
v 0.454974 3.841174 0.142683
v 0.801013 1.678694 1.989312
v 1.585092 0.627305 -0.633300
v 0.454974 1.678694 1.989312
v -0.000000 0.627305 2.116634
v -0.000000 1.983217 0.142683
vt -0.1587 0.4853
vt -0.1695 0.4892
vt -0.1586 0.4820
vt -0.1587 0.4873
vt -0.1587 0.4893
vt -0.1587 0.4927
vt -0.1695 0.4925
vt -0.1695 0.4908
vt -0.1684 0.4999
vt -0.1656 0.5039
vt -0.1684 0.5039
vt -0.1767 0.4805
vt -0.1590 0.4765
vt -0.1588 0.4793
vt -0.1532 0.5004
vt -0.1504 0.4927
vt -0.1504 0.5004
vt -0.1650 0.4927
vt -0.1588 0.4959
vt -0.1656 0.4959
vt -0.1816 0.4956
vt -0.1859 0.5008
vt -0.1851 0.4953
vt -0.1752 0.5100
vt -0.1779 0.5195
vt -0.1779 0.5100
vt -0.1581 0.4973
vt -0.1532 0.4927
vt -0.1779 0.4910
vt -0.1588 0.5005
vt -0.1532 0.5044
vt -0.1588 0.5045
vt -0.1769 0.4776
vt -0.1592 0.4736
vt -0.1588 0.4999
vt -0.1656 0.4999
vt -0.1622 0.5100
vt -0.1656 0.5100
vt -0.1588 0.5039
vt -0.1684 0.4959
vt -0.1767 0.4831
vt -0.1884 0.4955
vt -0.1880 0.5009
vt -0.1465 0.5085
vt -0.1492 0.5180
vt -0.1492 0.5085
vt -0.1588 0.5085
vt -0.1684 0.4927
vt -0.1959 0.4808
vt -0.1780 0.4778
vt -0.1779 0.4809
vt -0.1779 0.4849
vt -0.1477 0.5004
vt -0.1779 0.4959
vt -0.1718 0.4927
vt -0.1711 0.4959
vt -0.1779 0.4888
vt -0.1849 0.4947
vt -0.1959 0.4887
vt -0.1724 0.5195
vt -0.1724 0.5100
vt -0.1427 0.4973
vt -0.1421 0.5005
vt -0.1684 0.5100
vt -0.1711 0.5039
vt -0.1477 0.5044
vt -0.1779 0.4999
vt -0.1711 0.4999
vt -0.1745 0.5100
vt -0.1779 0.5039
vt -0.1898 0.4737
vt -0.1961 0.4776
vt -0.1982 0.4736
vt -0.1421 0.5085
vt -0.1477 0.5085
vt -0.1955 0.5014
vt -0.1939 0.4958
vt -0.1935 0.5012
vt -0.1926 0.5114
vt -0.1982 0.5118
vt -0.1912 0.4956
vt -0.1907 0.5011
vt -0.1588 0.5173
vt -0.1520 0.5107
vt -0.1520 0.5211
vt -0.1520 0.5085
vt -0.1959 0.4847
vt -0.1421 0.5045
vt -0.1579 0.4778
vt -0.1477 0.4753
vt -0.1477 0.4849
vt -0.1532 0.5085
vt -0.1871 0.5111
vt -0.1816 0.5108
vt -0.1594 0.4927
vt -0.1752 0.5195
vt -0.1779 0.4894
vt -0.1771 0.4748
vt -0.1504 0.5044
vt -0.1465 0.5180
vt -0.1477 0.4927
vt -0.1773 0.4927
vt -0.1784 0.4953
vt -0.1711 0.5100
vt -0.1973 0.4960
vt -0.1545 0.5085
vt -0.1520 0.5180
vt -0.1779 0.4927
vt -0.1586 0.4736
vn 0.0000 -0.4375 -0.8992
vn 0.0000 -1.0000 0.0000
vn 0.9975 0.0703 0.0000
vn 0.0000 1.0000 0.0000
vn 0.0000 -1.0000 0.0012
vn 0.8782 0.2252 0.4220
vn 0.0000 0.0000 1.0000
vn 0.2736 0.9618 0.0000
vn 0.0000 0.0000 -1.0000
vn 0.2661 0.9640 0.0000
vn 0.7014 0.0489 -0.7111
vn 0.0000 0.1202 0.9927
vn 0.0000 0.9999 0.0111
vn 0.0000 0.9867 0.1627
vn -0.9844 0.0693 -0.1616
vn -0.9975 0.0703 0.0000
vn -0.8320 0.0586 0.5517
vn -0.2744 0.9616 0.0011
vn -0.2744 0.9616 0.0107
vn -0.7351 0.0000 -0.6780
vn 0.0000 0.9502 0.3115
vn 0.0000 0.4893 0.8721
vn 1.0000 0.0000 0.0000
vn 0.9850 0.0687 -0.1583
vn -0.2661 0.9640 0.0000
vn -1.0000 0.0000 0.0000
vn 0.8320 0.0586 0.5517
vn 0.2744 0.9616 0.0011
vn 0.2744 0.9616 0.0107
vn 0.7351 0.0000 -0.6780
vn -0.9850 0.0687 -0.1583
vn -0.8782 0.2252 0.4220
vn -0.2736 0.9618 0.0000
vn -0.7014 0.0489 -0.7111
vn 0.9844 0.0693 -0.1616
usemtl マテリアル
s off
f 2/1/1 4/2/1 1/3/1
f 38/4/1 4/2/1 2/1/1
f 28/5/1 3/6/1 23/7/1
f 38/4/1 23/7/1 44/8/1
f 16/9/2 41/10/2 45/11/2
f 42/12/3 13/13/3 52/14/3
f 12/15/4 11/16/4 18/17/4
f 2/18/5 52/19/5 20/20/5
f 39/21/6 51/22/6 19/23/6
f 30/24/7 21/25/7 50/26/7
f 12/15/8 8/27/8 40/28/8
f 11/29/9 4/2/9 44/8/9
f 42/30/10 50/31/10 15/32/10
f 15/33/3 39/34/3 13/13/3
f 20/20/2 13/35/2 5/36/2
f 41/10/2 19/37/2 29/38/2
f 5/36/2 39/39/2 41/10/2
f 36/40/2 5/36/2 16/9/2
f 4/2/11 8/41/11 1/3/11
f 29/42/12 51/22/12 53/43/12
f 18/17/13 50/31/13 12/15/13
f 53/44/14 55/45/14 32/46/14
f 15/32/10 50/31/10 43/47/10
f 38/48/5 20/20/5 36/40/5
f 31/49/15 3/50/15 17/51/15
f 37/52/16 31/49/16 17/51/16
f 11/16/4 9/53/4 18/17/4
f 17/54/5 28/55/5 7/56/5
f 33/57/17 26/58/17 10/59/17
f 14/60/7 30/24/7 25/61/7
f 9/53/18 35/62/18 31/63/18
f 54/64/2 22/65/2 45/11/2
f 31/63/19 25/66/19 9/53/19
f 37/67/2 7/56/2 49/68/2
f 22/65/2 48/69/2 33/70/2
f 49/68/2 36/40/2 16/9/2
f 23/71/20 35/72/20 27/73/20
f 25/66/21 10/74/21 46/75/21
f 26/76/12 6/77/12 34/78/12
f 26/76/22 46/79/22 10/80/22
f 34/78/12 54/81/12 32/82/12
f 25/66/13 18/17/13 9/53/13
f 14/83/23 46/84/23 34/85/23
f 55/45/14 34/86/14 32/46/14
f 7/56/5 38/48/5 36/40/5
f 42/12/24 1/3/24 8/41/24
f 23/7/9 11/29/9 44/8/9
f 33/57/16 24/87/16 37/52/16
f 33/70/2 49/68/2 22/65/2
f 24/88/25 10/74/25 25/66/25
f 47/89/26 21/90/26 53/91/26
f 22/65/2 16/9/2 45/11/2
f 41/10/2 54/64/2 45/11/2
f 50/31/21 47/92/21 43/47/21
f 54/81/12 53/43/12 32/82/12
f 47/93/22 51/22/22 43/94/22
f 38/4/1 44/8/1 4/2/1
f 38/4/1 28/5/1 23/7/1
f 16/9/2 5/36/2 41/10/2
f 42/12/3 15/33/3 13/13/3
f 12/15/4 40/28/4 11/16/4
f 2/18/5 1/95/5 52/19/5
f 39/21/27 43/94/27 51/22/27
f 30/24/7 55/96/7 21/25/7
f 12/15/28 42/30/28 8/27/28
f 11/29/9 40/97/9 4/2/9
f 42/30/29 12/15/29 50/31/29
f 15/33/3 43/98/3 39/34/3
f 20/20/2 52/19/2 13/35/2
f 41/10/2 39/39/2 19/37/2
f 5/36/2 13/35/2 39/39/2
f 36/40/2 20/20/2 5/36/2
f 4/2/30 40/97/30 8/41/30
f 29/42/12 19/23/12 51/22/12
f 18/17/13 30/99/13 50/31/13
f 53/44/14 21/100/14 55/45/14
f 38/48/5 2/18/5 20/20/5
f 31/49/31 35/72/31 3/50/31
f 37/52/16 24/87/16 31/49/16
f 11/16/4 27/101/4 9/53/4
f 17/54/5 3/102/5 28/55/5
f 33/57/32 48/103/32 26/58/32
f 14/60/7 55/96/7 30/24/7
f 9/53/33 27/101/33 35/62/33
f 54/64/2 6/104/2 22/65/2
f 31/63/25 24/88/25 25/66/25
f 37/67/2 17/54/2 7/56/2
f 22/65/2 6/104/2 48/69/2
f 49/68/2 7/56/2 36/40/2
f 23/71/34 3/50/34 35/72/34
f 26/76/12 48/105/12 6/77/12
f 26/76/22 34/78/22 46/79/22
f 34/78/12 6/77/12 54/81/12
f 25/66/13 30/99/13 18/17/13
f 14/83/23 25/106/23 46/84/23
f 55/45/14 14/107/14 34/86/14
f 7/56/5 28/55/5 38/48/5
f 42/12/35 52/14/35 1/3/35
f 23/7/9 27/108/9 11/29/9
f 33/57/16 10/59/16 24/87/16
f 33/70/2 37/67/2 49/68/2
f 47/89/26 50/109/26 21/90/26
f 22/65/2 49/68/2 16/9/2
f 41/10/2 29/38/2 54/64/2
f 54/81/12 29/42/12 53/43/12
f 47/93/22 53/43/22 51/22/22
